<?xml version="1.0" standalone="no"?>
<!DOCTYPE svg PUBLIC "-//W3C//DTD SVG 20010904//EN"
 "http://www.w3.org/TR/2001/REC-SVG-20010904/DTD/svg10.dtd">
<svg version="1.0" xmlns="http://www.w3.org/2000/svg"
 width="512.000000pt" height="512.000000pt" viewBox="0 0 512.000000 512.000000"
 preserveAspectRatio="xMidYMid meet">
<metadata>
Created by potrace 1.13, written by Peter Selinger 2001-2015
</metadata>
<g transform="translate(0.000000,512.000000) scale(0.100000,-0.100000)"
fill="#157EFB" stroke="none">
<path d="M884 4631 c-47 -12 -133 -62 -160 -94 -14 -17 -37 -53 -52 -81 l-27
-51 0 -1925 0 -1925 25 -50 c31 -64 91 -124 155 -155 l50 -25 1285 0 1285 0
50 25 c64 31 124 91 155 155 24 47 25 61 28 253 l3 202 268 0 c204 0 280 3
324 15 258 67 417 329 352 580 -43 163 -168 293 -336 348 -9 3 -30 31 -48 61
-88 157 -289 275 -468 276 -44 0 -55 4 -72 26 -21 26 -21 35 -21 641 l0 613
-480 560 -480 560 -903 -1 c-496 -1 -916 -4 -933 -8z m1678 -593 l3 -443 25
-50 c31 -64 91 -124 155 -155 l50 -25 363 -3 362 -3 0 -459 0 -460 -62 34
c-114 62 -195 81 -343 80 -111 -1 -141 -5 -207 -26 -119 -39 -204 -92 -294
-182 -114 -114 -178 -236 -205 -390 l-10 -61 -64 -33 c-114 -60 -206 -177
-240 -309 -65 -249 94 -511 352 -578 47 -12 147 -15 566 -15 l508 0 -3 -189
c-3 -207 -6 -216 -72 -265 -27 -21 -30 -21 -1286 -21 -1256 0 -1259 0 -1286
21 -15 11 -37 33 -48 48 l-21 27 -3 1872 c-1 1030 0 1886 3 1904 7 40 49 91
90 109 24 11 190 13 847 14 l817 0 3 -442z m551 -98 l355 -415 -297 -3 c-163
-1 -310 0 -328 3 -41 7 -92 50 -109 92 -11 25 -14 113 -14 405 0 369 0 372 19
353 11 -11 179 -207 374 -435z m130 -1555 c142 -30 298 -145 362 -268 28 -53
31 -55 60 -49 16 4 66 7 110 6 69 0 91 -5 147 -31 90 -42 150 -100 193 -186
19 -38 35 -75 35 -82 0 -7 20 -15 49 -18 104 -12 203 -84 251 -182 35 -72 35
-198 0 -270 -31 -64 -91 -124 -155 -155 l-50 -25 -885 0 -885 0 -65 36 c-115
63 -178 177 -168 303 13 148 128 273 273 293 l45 6 0 66 c1 156 59 299 166
405 136 137 325 192 517 151z"/>
</g>
</svg>
